<svg xmlns="http://www.w3.org/2000/svg" width="94" height="28" viewBox="0 0 94 28">
  <g fill="none" fill-rule="evenodd">
    <path fill="#000" fill-rule="nonzero" d="M45.05,21 L45.05,18.3 L39.125,18.3 L39.125,3.35 L35.6,3.35 L35.6,21 L45.05,21 Z M53.55,21.175 C54.9,21.175 56.1125,20.8875 57.1875,20.3125 C58.2625,19.7375 59.1083333,18.9166667 59.725,17.85 C60.3416667,16.7833333 60.65,15.525 60.65,14.075 C60.65,12.625 60.3416667,11.3625 59.725,10.2875 C59.1083333,9.2125 58.2625,8.39166667 57.1875,7.825 C56.1125,7.25833333 54.9,6.975 53.55,6.975 C52.2,6.975 50.9875,7.25833333 49.9125,7.825 C48.8375,8.39166667 47.9916667,9.2125 47.375,10.2875 C46.7583333,11.3625 46.45,12.625 46.45,14.075 C46.45,15.525 46.7583333,16.7833333 47.375,17.85 C47.9916667,18.9166667 48.8375,19.7375 49.9125,20.3125 C50.9875,20.8875 52.2,21.175 53.55,21.175 Z M53.55,18.125 C52.5666667,18.125 51.7333333,17.7791667 51.05,17.0875 C50.3666667,16.3958333 50.025,15.3916667 50.025,14.075 C50.025,12.7583333 50.3666667,11.7541667 51.05,11.0625 C51.7333333,10.3708333 52.5666667,10.025 53.55,10.025 C54.5333333,10.025 55.3666667,10.3708333 56.05,11.0625 C56.7333333,11.7541667 57.075,12.7583333 57.075,14.075 C57.075,15.3916667 56.7333333,16.3958333 56.05,17.0875 C55.3666667,17.7791667 54.5333333,18.125 53.55,18.125 Z M70.15,27.8 C71.5833333,27.8 72.8041667,27.5083333 73.8125,26.925 C74.8208333,26.3416667 75.5791667,25.5375 76.0875,24.5125 C76.5958333,23.4875 76.85,22.3333333 76.85,21.05 L76.85,21.05 L76.85,7.15 L73.35,7.15 L73.35,10.025 C73,9.09166667 72.4083333,8.35 71.575,7.8 C70.7416667,7.25 69.7416667,6.975 68.575,6.975 C67.4083333,6.975 66.3583333,7.25833333 65.425,7.825 C64.4916667,8.39166667 63.7625,9.2125 63.2375,10.2875 C62.7125,11.3625 62.45,12.625 62.45,14.075 C62.45,15.525 62.7125,16.7875 63.2375,17.8625 C63.7625,18.9375 64.4916667,19.7583333 65.425,20.325 C66.3583333,20.8916667 67.4083333,21.175 68.575,21.175 C69.7416667,21.175 70.7416667,20.8958333 71.575,20.3375 C72.4083333,19.7791667 73,19.0333333 73.35,18.1 L73.35,18.1 L73.35,21.05 C73.35,22.2833333 73.0333333,23.2041667 72.4,23.8125 C71.7666667,24.4208333 70.9333333,24.725 69.9,24.725 C69,24.725 68.2625,24.5291667 67.6875,24.1375 C67.1125,23.7458333 66.725,23.2 66.525,22.5 L66.525,22.5 L63.05,22.5 C63.3166667,24.1333333 64.0666667,25.425 65.3,26.375 C66.5333333,27.325 68.15,27.8 70.15,27.8 Z M69.675,18.075 C68.575,18.075 67.6916667,17.7208333 67.025,17.0125 C66.3583333,16.3041667 66.025,15.325 66.025,14.075 C66.025,12.825 66.3583333,11.8416667 67.025,11.125 C67.6916667,10.4083333 68.575,10.05 69.675,10.05 C70.7416667,10.05 71.6208333,10.4125 72.3125,11.1375 C73.0041667,11.8625 73.35,12.8416667 73.35,14.075 C73.35,15.2916667 73.0041667,16.2625 72.3125,16.9875 C71.6208333,17.7125 70.7416667,18.075 69.675,18.075 Z M86.45,21.175 C87.8,21.175 89.0125,20.8875 90.0875,20.3125 C91.1625,19.7375 92.0083333,18.9166667 92.625,17.85 C93.2416667,16.7833333 93.55,15.525 93.55,14.075 C93.55,12.625 93.2416667,11.3625 92.625,10.2875 C92.0083333,9.2125 91.1625,8.39166667 90.0875,7.825 C89.0125,7.25833333 87.8,6.975 86.45,6.975 C85.1,6.975 83.8875,7.25833333 82.8125,7.825 C81.7375,8.39166667 80.8916667,9.2125 80.275,10.2875 C79.6583333,11.3625 79.35,12.625 79.35,14.075 C79.35,15.525 79.6583333,16.7833333 80.275,17.85 C80.8916667,18.9166667 81.7375,19.7375 82.8125,20.3125 C83.8875,20.8875 85.1,21.175 86.45,21.175 Z M86.45,18.125 C85.4666667,18.125 84.6333333,17.7791667 83.95,17.0875 C83.2666667,16.3958333 82.925,15.3916667 82.925,14.075 C82.925,12.7583333 83.2666667,11.7541667 83.95,11.0625 C84.6333333,10.3708333 85.4666667,10.025 86.45,10.025 C87.4333333,10.025 88.2666667,10.3708333 88.95,11.0625 C89.6333333,11.7541667 89.975,12.7583333 89.975,14.075 C89.975,15.3916667 89.6333333,16.3958333 88.95,17.0875 C88.2666667,17.7791667 87.4333333,18.125 86.45,18.125 Z"/>
    <circle cx="12.5" cy="12.5" r="12.5" fill="#07BECF"/>
    <path fill="#FFF" fill-rule="nonzero" d="M11.665,17 L11.665,13.425 L12.471,13.425 L14.616,17 L16.644,17 L14.356,13.334 C15.084,13.178 15.6408333,12.866 16.0265,12.398 C16.4121667,11.93 16.605,11.3493333 16.605,10.656 C16.605,9.80666667 16.3255,9.122 15.7665,8.602 C15.2075,8.082 14.395,7.822 13.329,7.822 L13.329,7.822 L9.832,7.822 L9.832,17 L11.665,17 Z M13.173,12.164 L11.665,12.164 L11.665,9.369 L13.173,9.369 C13.7103333,9.369 14.1068333,9.4925 14.3625,9.7395 C14.6181667,9.9865 14.746,10.331 14.746,10.773 C14.746,11.7003333 14.2216667,12.164 13.173,12.164 L13.173,12.164 Z"/>
  </g>
</svg>
